<svg width="347" height="120" viewBox="0 0 347 120" fill="none" xmlns="http://www.w3.org/2000/svg">
<rect width="347" height="120" fill="white"/>
<path d="M50.0308 97.9077C72.1477 97.9077 90.0769 79.9785 90.0769 57.8616C90.0769 35.7447 72.1477 17.8154 50.0308 17.8154C27.9139 17.8154 9.98462 35.7447 9.98462 57.8616C9.98462 79.9785 27.9139 97.9077 50.0308 97.9077Z" fill="white"/>
<path d="M50 101.384C26.0769 101.384 6.61536 81.9229 6.61536 57.9999C6.61536 34.0768 26.0769 14.6152 50 14.6152C73.9231 14.6152 93.3846 34.0768 93.3846 57.9999C93.3846 81.9229 73.9231 101.384 50 101.384ZM50 18.2922C28.1077 18.2922 10.2923 36.1075 10.2923 57.9999C10.2923 79.8922 28.1077 97.7075 50 97.7075C71.8923 97.7075 89.7077 79.8922 89.7077 57.9999C89.7077 36.1075 71.8923 18.2922 50 18.2922Z" fill="black"/>
<path fill-rule="evenodd" clip-rule="evenodd" d="M41.323 69.0615C41.7538 70.4769 42.4153 71.8 43.323 72.9539H56.9692C57.8922 71.8 58.5538 70.4769 58.9692 69.0615H41.323ZM70.1384 55C69.7076 55.4 69.6922 56.0769 70.0922 56.5231L70.2461 56.6923C76.4461 51.4 80.1845 47.3077 78.323 44.0769C76.2769 41.2308 67.6461 42.5692 57.0769 47.3385C57.6153 46.2616 57.8769 45.0769 57.8769 43.9077C57.8769 43.4769 57.8461 43.0308 57.7692 42.6C57.523 41.0769 56.7999 39.6154 55.6307 38.4616C54.9999 37.8154 54.2615 37.3231 53.4922 36.9539L53.523 36.8769L54.3384 35.1077C54.4615 34.8308 54.3384 34.4923 54.0615 34.3539C53.7845 34.2308 53.4461 34.3539 53.3076 34.6308L52.4307 36.5385C50.9692 36.0923 49.3845 36.0923 47.923 36.5385L47.0461 34.6308C46.923 34.3539 46.5845 34.2308 46.2922 34.3539C46.0153 34.4769 45.8922 34.8154 46.0153 35.1077L46.7999 36.8154L46.8615 36.9539C46.0922 37.3231 45.3538 37.8308 44.723 38.4616C43.1845 40 42.4461 42.0308 42.4769 44.0462C42.4922 45.1385 42.7384 46.2308 43.2307 47.2462C40.4922 46.0154 25.3076 39.7385 22.2461 44.0154C19.4769 47.9231 27.9845 54.7539 30.2615 56.6923L30.4153 56.5231C30.8153 56.0923 30.7845 55.4154 30.3692 55C29.2461 53.9539 27.4922 52.2154 26.2769 50.5231C24.6769 48.2923 24.6307 46.9846 25.3999 46.2616C27.8153 43.9846 36.7845 47 39.5692 48.0616C42.2461 49.0923 45.123 50.3846 48.0922 51.9539C33.8769 60.2 24.2153 70.0462 26.4922 74C27.923 76.4769 33.8769 76.1539 41.5076 73.4616L41.2307 73.0154C40.9692 72.5846 40.4769 72.3846 39.9845 72.5385C34.6769 74.1385 31.3845 74.9077 30.2461 73.2C28.6461 70.4462 36.7384 60.9385 49.2922 53.6769L50.2307 53.1385C50.5538 53.3077 50.8615 53.4923 51.1845 53.6769C63.7538 60.9231 71.8307 70.4308 70.2307 73.2C69.0922 74.9077 65.7845 74.1385 60.4922 72.5385C60.0153 72.3846 59.5076 72.5846 59.2461 73.0154L58.9692 73.4616C66.6153 76.1539 72.5538 76.4769 73.9845 74C76.2615 70.0462 66.5999 60.2 52.3845 51.9539C62.3999 46.6769 71.4153 44.3231 74.723 46.0154C77.7076 47.5077 72.4922 52.7692 70.1384 55ZM43.723 44.8923C43.2615 42.0308 44.7692 39.1692 47.3999 37.9539C47.8769 40.8154 46.3538 43.6616 43.723 44.8923ZM56.523 44.8923C53.8922 43.6616 52.3845 40.8154 52.8461 37.9539C55.4615 39.1692 56.9845 42.0308 56.523 44.8923ZM58.8307 61.1077C56.2153 59.2 53.3076 57.2769 50.1538 55.4462C47.0153 57.2769 44.0922 59.2 41.4922 61.1077C40.9692 62.6 40.7384 64.2154 40.7999 65.8H59.523C59.5692 64.2 59.3384 62.6 58.8307 61.1077ZM46.3076 76.2154C47.4769 77.4462 48.3999 78.5385 50.1538 81.7077C51.9076 78.5385 52.8307 77.4462 53.9999 76.2154H46.3076Z" fill="black"/>
<path d="M164.031 97.9077C186.148 97.9077 204.077 79.9785 204.077 57.8616C204.077 35.7447 186.148 17.8154 164.031 17.8154C141.914 17.8154 123.985 35.7447 123.985 57.8616C123.985 79.9785 141.914 97.9077 164.031 97.9077Z" fill="#FFC000"/>
<path d="M164 101.384C140.077 101.384 120.615 81.9229 120.615 57.9999C120.615 34.0768 140.077 14.6152 164 14.6152C187.923 14.6152 207.385 34.0768 207.385 57.9999C207.385 81.9229 187.923 101.384 164 101.384ZM164 18.2922C142.108 18.2922 124.292 36.1075 124.292 57.9999C124.292 79.8922 142.108 97.7075 164 97.7075C185.892 97.7075 203.708 79.8922 203.708 57.9999C203.708 36.1075 185.892 18.2922 164 18.2922Z" fill="black"/>
<path fill-rule="evenodd" clip-rule="evenodd" d="M184.215 73.231C183.077 74.9387 179.769 74.1695 174.477 72.5695C174.231 72.4925 174 72.5079 173.769 72.6002C175.385 70.2464 175.739 65.9233 175.169 62.7695C175.169 62.7541 175.169 62.7387 175.169 62.7233C175.169 62.7079 175.169 62.7079 175.169 62.6925C175 61.4618 174.723 60.4772 174.415 60.0464C181.446 65.7079 185.369 71.2464 184.215 73.231Z" fill="white"/>
<path fill-rule="evenodd" clip-rule="evenodd" d="M157.723 44.8921C157.262 42.0305 158.769 39.169 161.4 37.9536C161.877 40.8152 160.354 43.6613 157.723 44.8921Z" fill="white"/>
<path fill-rule="evenodd" clip-rule="evenodd" d="M144.631 55.9846C144.631 55.9846 144.861 55.4307 144.323 54.9384C141.969 52.7076 136.754 47.4461 139.723 45.9384C143.031 44.2615 152.061 46.6615 162.077 51.9384C157.031 54.8615 153.569 57.2769 149.908 60.2307C145.877 57.2615 145.154 56.6 144.631 55.9846Z" fill="white"/>
<path fill-rule="evenodd" clip-rule="evenodd" d="M178.631 60.2922C175.062 57.2922 171.446 54.8768 166.385 51.9537C176.4 46.6768 185.415 44.3229 188.723 46.0152C191.692 47.5229 186.477 52.7845 184.123 55.0152C183.708 55.4152 183.8 55.5845 183.815 56.0614C183.308 56.6614 182.677 57.3229 178.631 60.2922Z" fill="white"/>
<path fill-rule="evenodd" clip-rule="evenodd" d="M154.062 59.9692C153.754 60.4 153.477 61.3846 153.308 62.6154C153.308 62.6154 153.308 62.6308 153.308 62.6462C153.308 62.6615 153.308 62.6769 153.308 62.6923C152.738 65.8462 153.092 70.1692 154.708 72.5231C154.492 72.4308 154.246 72.4308 154 72.4923C148.692 74.0923 145.4 74.8615 144.262 73.1539C143.092 71.1692 147.015 65.6308 154.062 59.9692Z" fill="white"/>
<path fill-rule="evenodd" clip-rule="evenodd" d="M170.523 44.8921C167.892 43.6613 166.385 40.8152 166.846 37.9536C169.461 39.169 170.985 42.0305 170.523 44.8921Z" fill="white"/>
<path fill-rule="evenodd" clip-rule="evenodd" d="M155.323 69.0615C155.754 70.4769 156.415 71.8 157.323 72.9539H170.969C171.892 71.8 172.554 70.4769 172.969 69.0615H155.323ZM184.139 55C183.708 55.4 183.692 56.0769 184.092 56.5231L184.246 56.6923C190.446 51.4 194.185 47.3077 192.323 44.0769C190.277 41.2308 181.646 42.5692 171.077 47.3385C171.615 46.2616 171.877 45.0769 171.877 43.9077C171.877 43.4769 171.846 43.0308 171.769 42.6C171.523 41.0769 170.8 39.6154 169.631 38.4616C169 37.8154 168.262 37.3231 167.492 36.9539L167.523 36.8769L168.339 35.1077C168.462 34.8308 168.339 34.4923 168.062 34.3539C167.785 34.2308 167.446 34.3539 167.308 34.6308L166.431 36.5385C164.969 36.0923 163.385 36.0923 161.923 36.5385L161.046 34.6308C160.923 34.3539 160.585 34.2308 160.292 34.3539C160.015 34.4769 159.892 34.8154 160.015 35.1077L160.8 36.8154L160.862 36.9539C160.092 37.3231 159.354 37.8308 158.723 38.4616C157.185 40 156.446 42.0308 156.477 44.0462C156.492 45.1385 156.739 46.2308 157.231 47.2462C154.492 46.0154 139.308 39.7385 136.246 44.0154C133.477 47.9231 141.985 54.7539 144.262 56.6923L144.415 56.5231C144.815 56.0923 144.785 55.4154 144.369 55C143.246 53.9539 141.492 52.2154 140.277 50.5231C138.677 48.2923 138.631 46.9846 139.4 46.2616C141.815 43.9846 150.785 47 153.569 48.0616C156.246 49.0923 159.123 50.3846 162.092 51.9539C147.877 60.2 138.215 70.0462 140.492 74C141.923 76.4769 147.877 76.1539 155.508 73.4616L155.231 73.0154C154.969 72.5846 154.477 72.3846 153.985 72.5385C148.677 74.1385 145.385 74.9077 144.246 73.2C142.646 70.4462 150.739 60.9385 163.292 53.6769L164.231 53.1385C164.554 53.3077 164.862 53.4923 165.185 53.6769C177.754 60.9231 185.831 70.4308 184.231 73.2C183.092 74.9077 179.785 74.1385 174.492 72.5385C174.015 72.3846 173.508 72.5846 173.246 73.0154L172.969 73.4616C180.615 76.1539 186.554 76.4769 187.985 74C190.262 70.0462 180.6 60.2 166.385 51.9539C176.4 46.6769 185.415 44.3231 188.723 46.0154C191.708 47.5077 186.492 52.7692 184.139 55ZM157.723 44.8923C157.262 42.0308 158.769 39.1692 161.4 37.9539C161.877 40.8154 160.354 43.6616 157.723 44.8923ZM170.523 44.8923C167.892 43.6616 166.385 40.8154 166.846 37.9539C169.462 39.1692 170.985 42.0308 170.523 44.8923ZM172.831 61.1077C170.215 59.2 167.308 57.2769 164.154 55.4462C161.015 57.2769 158.092 59.2 155.492 61.1077C154.969 62.6 154.739 64.2154 154.8 65.8H173.523C173.569 64.2 173.339 62.6 172.831 61.1077ZM160.308 76.2154C161.477 77.4462 162.4 78.5385 164.154 81.7077C165.908 78.5385 166.831 77.4462 168 76.2154H160.308Z" fill="black"/>
<rect x="218" width="120" height="120" fill="black"/>
<path d="M278 21.7231C256.892 21.7231 239.723 38.8924 239.723 60.0001C239.723 81.1078 256.892 98.277 278 98.277C299.108 98.277 316.277 81.1078 316.277 60.0001C316.277 38.8924 299.108 21.7231 278 21.7231Z" fill="#FFC000"/>
<path d="M278 105.785C252.754 105.785 232.215 85.2461 232.215 59.9999C232.215 34.7538 252.754 14.2153 278 14.2153C303.246 14.2153 323.785 34.7538 323.785 59.9999C323.785 85.2461 303.246 105.785 278 105.785ZM278 18.0923C254.892 18.0923 236.092 36.8923 236.092 59.9999C236.092 83.1076 254.892 101.908 278 101.908C301.108 101.908 319.908 83.1076 319.908 59.9999C319.908 36.8923 301.108 18.0923 278 18.0923Z" fill="white"/>
<path fill-rule="evenodd" clip-rule="evenodd" d="M298.2 75.1382C297.061 76.8459 293.754 76.0767 288.461 74.4767C288.215 74.3998 287.985 74.4151 287.754 74.5075C289.369 72.1536 289.723 67.8305 289.154 64.6767C289.154 64.6613 289.154 64.6459 289.154 64.6305C289.154 64.6152 289.154 64.6151 289.154 64.5998C288.985 63.369 288.708 62.3844 288.4 61.9536C295.446 67.6152 299.369 73.1382 298.2 75.1382Z" fill="white"/>
<path fill-rule="evenodd" clip-rule="evenodd" d="M269.323 70.9693C269.754 72.3846 270.415 73.7077 271.323 74.8616H284.969C285.892 73.7077 286.554 72.3846 286.969 70.9693H269.323ZM298.138 56.9077C297.708 57.3077 297.692 57.9846 298.092 58.4308L298.246 58.6C304.446 53.3077 308.185 49.2154 306.323 45.9847C304.277 43.1385 295.646 44.477 285.077 49.2462C285.615 48.1693 285.877 46.9847 285.877 45.8154C285.877 45.3847 285.846 44.9385 285.769 44.5077C285.523 42.9847 284.8 41.5231 283.631 40.3693C283 39.7231 282.261 39.2308 281.492 38.8616L281.523 38.7847L282.338 37.0154C282.461 36.7385 282.338 36.4 282.061 36.2616C281.785 36.1385 281.446 36.2616 281.308 36.5385L280.431 38.4462C278.969 38 277.385 38 275.923 38.4462L275.046 36.5385C274.923 36.2616 274.585 36.1385 274.292 36.2616C274.015 36.3847 273.892 36.7231 274.015 37.0154L274.8 38.7231L274.861 38.8616C274.092 39.2308 273.354 39.7385 272.723 40.3693C271.185 41.9077 270.446 43.9385 270.477 45.9539C270.492 47.0462 270.738 48.1385 271.231 49.1539C268.492 47.9231 253.308 41.6462 250.246 45.9231C247.477 49.8308 255.985 56.6616 258.261 58.6L258.415 58.4308C258.815 58 258.785 57.3231 258.369 56.9077C257.246 55.8616 255.492 54.1231 254.277 52.4308C252.677 50.2 252.631 48.8923 253.4 48.1693C255.815 45.8923 264.785 48.9077 267.569 49.9693C270.246 51 273.123 52.2923 276.092 53.8616C261.877 62.1077 252.215 71.9539 254.492 75.9077C255.923 78.3846 261.877 78.0616 269.508 75.3693L269.231 74.9231C268.969 74.4923 268.477 74.2923 267.985 74.4462C262.677 76.0462 259.385 76.8154 258.246 75.1077C256.646 72.3539 264.738 62.8462 277.292 55.5846L278.231 55.0462C278.554 55.2154 278.861 55.4 279.185 55.5846C291.754 62.8308 299.831 72.3385 298.231 75.1077C297.092 76.8154 293.785 76.0462 288.492 74.4462C288.015 74.2923 287.508 74.4923 287.246 74.9231L286.969 75.3693C294.615 78.0616 300.554 78.3846 301.985 75.9077C304.261 71.9539 294.6 62.1077 280.385 53.8616C290.4 48.5847 299.415 46.2308 302.723 47.9231C305.708 49.4154 300.492 54.677 298.138 56.9077ZM271.723 46.8C271.261 43.9385 272.769 41.077 275.4 39.8616C275.877 42.7231 274.354 45.5693 271.723 46.8ZM284.523 46.8C281.892 45.5693 280.385 42.7231 280.846 39.8616C283.461 41.077 284.985 43.9385 284.523 46.8ZM286.831 63.0154C284.215 61.1077 281.308 59.1846 278.154 57.3539C275.015 59.1846 272.092 61.1077 269.492 63.0154C268.969 64.5077 268.738 66.1231 268.8 67.7077H287.523C287.569 66.1077 287.338 64.5077 286.831 63.0154ZM274.308 78.1231C275.477 79.3539 276.4 80.4462 278.154 83.6154C279.908 80.4462 280.831 79.3539 282 78.1231H274.308Z" fill="black"/>
<path fill-rule="evenodd" clip-rule="evenodd" d="M271.723 46.8003C271.262 43.9387 272.769 41.0772 275.4 39.8618C275.877 42.7234 274.354 45.5695 271.723 46.8003Z" fill="white"/>
<path fill-rule="evenodd" clip-rule="evenodd" d="M258.631 57.8923C258.631 57.8923 258.861 57.3384 258.323 56.8461C255.969 54.6154 250.754 49.3538 253.723 47.8461C257.031 46.1692 266.061 48.5692 276.077 53.8461C271.031 56.7692 267.569 59.1846 263.908 62.1384C259.877 59.1692 259.154 58.5077 258.631 57.8923Z" fill="white"/>
<path fill-rule="evenodd" clip-rule="evenodd" d="M292.631 62.1847C289.061 59.1847 285.446 56.7694 280.385 53.8463C290.4 48.5694 299.415 46.2155 302.723 47.9078C305.692 49.4155 300.477 54.677 298.123 56.9078C297.708 57.3078 297.8 57.477 297.815 57.954C297.308 58.5694 296.677 59.2309 292.631 62.1847Z" fill="white"/>
<path fill-rule="evenodd" clip-rule="evenodd" d="M268.061 61.877C267.754 62.3077 267.477 63.2923 267.308 64.5231C267.308 64.5231 267.308 64.5385 267.308 64.5539C267.308 64.5693 267.308 64.5846 267.308 64.6C266.738 67.7539 267.092 72.0769 268.708 74.4308C268.492 74.3385 268.246 74.3385 268 74.4C262.692 76 259.4 76.7693 258.261 75.0616C257.092 73.077 261.015 67.5385 268.061 61.877Z" fill="white"/>
<path fill-rule="evenodd" clip-rule="evenodd" d="M284.523 46.8003C281.892 45.5695 280.385 42.7234 280.846 39.8618C283.461 41.0772 284.985 43.9387 284.523 46.8003Z" fill="white"/>
</svg>
