<?xml version="1.0" encoding="utf-8"?>
<!-- Generator: Adobe Illustrator 26.0.1, SVG Export Plug-In . SVG Version: 6.00 Build 0)  -->
<svg version="1.1" id="Layer_2" xmlns="http://www.w3.org/2000/svg" xmlns:xlink="http://www.w3.org/1999/xlink" x="0px" y="0px"
	 width="640px" height="360px" viewBox="0 0 640 360" style="enable-background:new 0 0 640 360;" xml:space="preserve">
<style type="text/css">
	.st0{fill:#3CB4E6;}
	.st1{fill:#FFFFFF;}
</style>
<g>
	<g>
		<g>
			<path class="st0" d="M319.5,329c82.9,0,150-67.2,150-150s-67.2-150-150-150s-150,67.2-150,150S236.7,329,319.5,329"/>
		</g>
	</g>
	<g>
		<path class="st1" d="M204.4,238.4v1.4c0,4.3,1.2,7.1,6.1,7.1c2.8,0,5.5-1.8,5.5-5.7c0-4.2-2.1-5.7-8.2-7.8
			c-8.2-2.8-12-6.2-12-13.9c0-8.9,5.5-13.5,14.2-13.5c8.2,0,14.2,3.6,14.2,12.3v1.3h-8.9c0-4.3-1.5-6.8-5-6.8
			c-4.2,0-5.3,2.6-5.3,5.3c0,2.8,0.8,4.6,4.8,6.2l7.1,3.1c7,3,8.7,6.5,8.7,12.1c0,9.7-5.9,14.1-16,14.1c-10.5,0-14.6-4.9-14.6-13.4
			v-1.9C195.1,238.4,204.4,238.4,204.4,238.4z"/>
		<path class="st1" d="M257.2,206.8v7.6h-10v38.3h-9.3v-38.3h-10v-7.6H257.2z"/>
		<path class="st1" d="M261.3,206.8h13.8l6.5,32.4h0.1l6.6-32.4H302v45.9h-8.5v-36.6h-0.1l-8.2,36.6H278l-8.2-36.6h-0.1v36.6h-8.5
			L261.3,206.8L261.3,206.8z"/>
		<path class="st1" d="M317,227.1h2.8c4.8,0,7-3.5,7-8.1c0-4.2-1.5-7.6-5.9-7.6c-6,0-6.5,5.5-6.5,8.9h-5.7c0-7.8,3.7-13.1,12.1-13.1
			c9.5,0,11.7,6.8,11.7,11.8c0,4.6-2.3,8.6-7.1,9.8v0.1c5.1,1,8.4,4.3,8.4,10.6c0,8.3-4.2,14.1-12.9,14.1
			c-12.2,0-12.9-10.7-12.9-12.7v-0.6h5.7c0,4.2,2,9,7.3,9c3.3,0,7.3-1.7,7.3-9.4c0-5.3-2.6-8.7-8.2-8.7h-2.9L317,227.1L317,227.1z"
			/>
		<path class="st1" d="M364.5,252.7h-25.4c0-8.5,4.8-14.2,9.8-18.6l3.7-3.1c3.7-3.1,6-5.9,6-10.9c0-3.9-1.7-8.2-6.6-8.2
			c-7,0-7.2,7.3-7.2,9.8h-5.7c0-8.6,3.6-14.5,12.9-14.5c10.5,0,12.2,8.2,12.2,12.1c0,7-2.9,10.6-8,15l-6.4,5.6
			c-2.5,2.1-4.3,4.8-5,7.8h19.7V252.7L364.5,252.7z"/>
		<path class="st1" d="M302.6,289.9c-0.5,8.7-3.9,16.6-13.9,16.6c-13,0-14.8-12.3-14.8-23.9s2.1-23.9,14.8-23.9
			c9.4,0,13.3,5.3,13.6,14.2h-5.9c-0.1-5.2-1.8-9.6-7.6-9.6c-7.8,0-8.9,8.6-8.9,19.2s1,19.2,8.9,19.2c6.9,0,7.8-6.4,8-12
			L302.6,289.9L302.6,289.9z"/>
		<path class="st1" d="M330.4,305.6h-5.1v-4h-0.1c-1.4,3.1-5,5-8.4,5c-9.1,0-9.1-6.9-9.1-10.9v-24.4h5.4v23.8c0,2.6,0.2,6.9,5.1,6.9
			c2.9,0,6.8-1.9,6.8-6.9v-23.8h5.4L330.4,305.6L330.4,305.6z"/>
		<path class="st1" d="M337.5,259.7h5.4V275h0.1c1.2-2.9,4.5-4.8,8-4.8c9.3,0,10.5,10.9,10.5,18.1c0,9.7-3.3,18.1-11.2,18.1
			c-3.7,0-6.8-2.6-7.4-5.1h-0.2v4.2h-5.2V259.7z M349.5,301.9c5,0,6.3-5.7,6.3-13.5c0-8.2-1.3-13.5-6.3-13.5c-5.8,0-7,6.8-7,13.5
			C342.5,295.5,343.7,301.9,349.5,301.9z"/>
		<path class="st1" d="M371.7,289c0,5.3,0,13.2,6.6,13.2c5.1,0,5.9-5.4,5.9-8h5.4c0,3.7-2.2,12.2-11.6,12.2
			c-8.4,0-11.9-5.9-11.9-17.7c0-8.6,1.7-18.6,12.3-18.6c10.5,0,11.5,9.2,11.5,16.6v2.2C389.9,289,371.7,289,371.7,289z M384.2,284.8
			v-1.9c0-3.9-1.2-8.4-6-8.4c-5.7,0-6.3,7-6.3,9v1.3C371.9,284.8,384.2,284.8,384.2,284.8z"/>
	</g>
	<g>
		<g>
			<g>
				<g>
					<polygon class="st0" points="273.3,59.2 349.9,30.9 435.1,53.9 421,141.1 361.8,198.5 288.1,148.2 					"/>
				</g>
			</g>
			<g>
				<g>
					<polygon class="st0" points="273.3,59.2 349.9,30.9 435.1,53.9 421,141.1 361.8,198.5 288.1,148.2 					"/>
				</g>
			</g>
			<g>
				<g>
					<polygon class="st1" points="298.4,69.3 276.9,60.2 303.9,50.1 325.4,58.1 					"/>
				</g>
			</g>
			<g>
				<g>
					<polygon class="st1" points="328.6,56.9 306.4,49.1 328.9,40.4 350.6,47.5 					"/>
				</g>
			</g>
			<g>
				<g>
					<polygon class="st1" points="353.2,46.6 331.4,39.7 350.5,32.7 372.4,38.6 					"/>
				</g>
			</g>
			<g>
				<g>
					<polygon class="st1" points="356.1,47.3 374.5,39.7 400.2,46.4 382.1,55.3 					"/>
				</g>
			</g>
			<g>
				<g>
					<polygon class="st1" points="379.5,56.5 353.8,48.2 331.2,58.1 357.5,67.3 					"/>
				</g>
			</g>
			<g>
				<g>
					<polygon class="st1" points="354.6,68.4 328.2,58.7 301.3,70 327.5,81.9 					"/>
				</g>
			</g>
			<g>
				<g>
					<polygon class="st1" points="361.2,68.2 382.5,57.2 412.3,66.6 391.9,79.6 					"/>
				</g>
			</g>
			<g>
				<g>
					<polygon class="st1" points="415.3,64.9 385.3,56 403.2,47.1 432.3,55.1 					"/>
				</g>
			</g>
			<g>
				<g>
					<polygon class="st1" points="393.5,81.9 413.3,69.1 410,100.5 390.3,115.6 					"/>
				</g>
			</g>
			<g>
				<g>
					<polygon class="st1" points="412.3,98.4 428.1,87 433.2,57.2 416.7,67.5 					"/>
				</g>
			</g>
			<g>
				<g>
					<polygon class="st1" points="411.2,102.8 427.5,90.4 423.6,115.6 407.7,129.4 					"/>
				</g>
			</g>
			<g>
				<g>
					<polygon class="st1" points="406.2,130.8 409.6,103.7 389.6,118.6 387.6,146.4 					"/>
				</g>
			</g>
			<g>
				<g>
					<polygon class="st1" points="385.3,148.9 387.6,120.9 363.9,136.3 362.8,167.5 					"/>
				</g>
			</g>
			<g>
				<g>
					<polygon class="st1" points="419,141.3 404.1,155.1 406.8,132.1 422.7,118.6 					"/>
				</g>
			</g>
			<g>
				<g>
					<polygon class="st1" points="405,133.7 402.3,156.7 384.8,173.9 386.6,149.8 					"/>
				</g>
			</g>
			<g>
				<g>
					<polygon class="st1" points="384.8,151.4 362.6,170.7 361.9,195.6 383.2,174.8 					"/>
				</g>
			</g>
			<g>
				<g>
					<polygon class="st1" points="360.9,168.6 360.9,137.2 332.3,123.4 333.7,150.9 					"/>
				</g>
			</g>
			<g>
				<g>
					<polygon class="st1" points="330.7,149.6 329.5,121.6 304.3,108.1 307.5,134.9 					"/>
				</g>
			</g>
			<g>
				<g>
					<polygon class="st1" points="301.8,106.2 305,133.7 285.7,121.4 280.9,95.2 					"/>
				</g>
			</g>
			<g>
				<g>
					<polygon class="st1" points="305.9,136.5 286.2,124.1 289.9,146.4 308.7,160.1 					"/>
				</g>
			</g>
			<g>
				<g>
					<polygon class="st1" points="308,137.6 331.2,152.3 332.5,176.6 310.7,161.5 					"/>
				</g>
			</g>
			<g>
				<g>
					<polygon class="st1" points="333.4,153.7 360.5,170.7 360.3,195.6 334.6,177.8 					"/>
				</g>
			</g>
			<g>
				<g>
					<polygon class="st1" points="356.6,69.3 329.3,83.8 330.7,116.5 357.1,102.1 					"/>
				</g>
			</g>
			<g>
				<g>
					<polygon class="st1" points="359.6,70 359.4,101.9 387.8,116.5 390.5,82.1 					"/>
				</g>
			</g>
			<g>
				<g>
					<polygon class="st1" points="329.5,119.4 327.2,84.3 300.8,72.3 304.1,105.6 					"/>
				</g>
			</g>
			<g>
				<g>
					<polygon class="st1" points="301.4,104 298.2,71.6 276.1,62 280.8,93.1 					"/>
				</g>
			</g>
		</g>
		<g>
			<g>
				<g>
					<path class="st1" d="M354.1,144.5c0,0-0.3,1.2-2.9-0.5c-2.6-1.7-23.4-20.3-23.4-20.3s-0.3-0.2-0.3-1.4c0-1.2-2.6-34.1-2.6-34.1
						s-0.1-0.9,1.8-1.7c1.9-0.8,32.2-11.2,32.2-11.2s1.6-0.7,3.1,0.1s25.6,14.2,25.6,14.2s0.8,0.7,0.9,3.1
						c0.1,2.4-2.3,34.5-2.3,34.5s0.3,0.6-1.1,1.2C383.5,129.3,354.1,144.5,354.1,144.5"/>
				</g>
			</g>
			<g>
				<g>
					<polygon class="st0" points="352.5,104.9 327,87 360,75.5 386.6,90.4 					"/>
				</g>
			</g>
			<g>
				<g>
					<polygon class="st0" points="352.5,104.9 327,87 360,75.5 386.6,90.4 					"/>
				</g>
			</g>
			<g>
				<g>
					<polygon class="st0" points="354.1,106.7 353.8,143.1 385.7,127.5 388,92.7 					"/>
				</g>
			</g>
			<g>
				<g>
					<polygon class="st0" points="354.1,106.7 353.8,143.1 385.7,127.5 388,92.7 					"/>
				</g>
			</g>
			<g>
				<g>
					<polygon class="st0" points="351.1,106.7 325.9,88.6 327.9,123 351.3,142.9 					"/>
				</g>
			</g>
			<g>
				<g>
					<polygon class="st0" points="351.1,106.7 325.9,88.6 327.9,123 351.3,142.9 					"/>
				</g>
			</g>
		</g>
	</g>
</g>
</svg>
